<mxfile host="app.diagrams.net" agent="Mozilla/5.0 (Windows NT 10.0; Win64; x64) AppleWebKit/537.36 (KHTML, like Gecko) Chrome/127.0.0.0 Safari/537.36 Edg/127.0.0.0" version="24.7.7">
  <diagram name="Page-1" id="jnM1wCq2vMDDajKr8ohf">
    <mxGraphModel dx="2656" dy="1014" grid="1" gridSize="10" guides="1" tooltips="1" connect="1" arrows="1" fold="1" page="1" pageScale="1" pageWidth="850" pageHeight="1100" math="0" shadow="0">
      <root>
        <mxCell id="0" />
        <mxCell id="1" parent="0" />
        <mxCell id="UGi_67-xu8HfX04rQqDn-1" value="" style="rounded=0;whiteSpace=wrap;html=1;" vertex="1" parent="1">
          <mxGeometry x="-30" y="80" width="1420" height="370" as="geometry" />
        </mxCell>
        <mxCell id="UGi_67-xu8HfX04rQqDn-2" value="Process Description" style="ellipse;whiteSpace=wrap;html=1;aspect=fixed;" vertex="1" parent="1">
          <mxGeometry x="30" y="160" width="80" height="80" as="geometry" />
        </mxCell>
        <mxCell id="UGi_67-xu8HfX04rQqDn-3" value="Notes" style="ellipse;whiteSpace=wrap;html=1;aspect=fixed;" vertex="1" parent="1">
          <mxGeometry x="30" y="270" width="80" height="80" as="geometry" />
        </mxCell>
        <mxCell id="UGi_67-xu8HfX04rQqDn-4" value="User" style="shape=umlActor;verticalLabelPosition=bottom;verticalAlign=top;html=1;outlineConnect=0;" vertex="1" parent="1">
          <mxGeometry x="-220" y="210" width="30" height="60" as="geometry" />
        </mxCell>
        <mxCell id="UGi_67-xu8HfX04rQqDn-5" value="" style="endArrow=classic;html=1;rounded=0;entryX=0;entryY=0.5;entryDx=0;entryDy=0;" edge="1" parent="1" source="UGi_67-xu8HfX04rQqDn-4" target="UGi_67-xu8HfX04rQqDn-2">
          <mxGeometry width="50" height="50" relative="1" as="geometry">
            <mxPoint x="-50" y="290" as="sourcePoint" />
            <mxPoint y="240" as="targetPoint" />
          </mxGeometry>
        </mxCell>
        <mxCell id="UGi_67-xu8HfX04rQqDn-6" value="" style="endArrow=classic;html=1;rounded=0;entryX=0;entryY=0.5;entryDx=0;entryDy=0;exitX=0.997;exitY=0.502;exitDx=0;exitDy=0;exitPerimeter=0;" edge="1" parent="1" source="UGi_67-xu8HfX04rQqDn-7" target="UGi_67-xu8HfX04rQqDn-3">
          <mxGeometry width="50" height="50" relative="1" as="geometry">
            <mxPoint x="-120" y="250" as="sourcePoint" />
            <mxPoint x="10" y="210" as="targetPoint" />
          </mxGeometry>
        </mxCell>
        <mxCell id="UGi_67-xu8HfX04rQqDn-8" value="" style="endArrow=none;html=1;rounded=0;entryX=0;entryY=0.5;entryDx=0;entryDy=0;strokeColor=default;endFill=0;" edge="1" parent="1" target="UGi_67-xu8HfX04rQqDn-7">
          <mxGeometry width="50" height="50" relative="1" as="geometry">
            <mxPoint x="-190" y="240" as="sourcePoint" />
            <mxPoint y="300" as="targetPoint" />
          </mxGeometry>
        </mxCell>
        <mxCell id="UGi_67-xu8HfX04rQqDn-7" value="Optional" style="text;html=1;align=center;verticalAlign=middle;resizable=0;points=[];autosize=1;strokeColor=none;fillColor=none;rotation=21;" vertex="1" parent="1">
          <mxGeometry x="-120" y="260" width="70" height="30" as="geometry" />
        </mxCell>
        <mxCell id="UGi_67-xu8HfX04rQqDn-15" value="Generate Flows Scenarios" style="rounded=0;whiteSpace=wrap;html=1;" vertex="1" parent="1">
          <mxGeometry x="350" y="249" width="160" height="60" as="geometry" />
        </mxCell>
        <mxCell id="UGi_67-xu8HfX04rQqDn-17" value="Stage One" style="rounded=0;whiteSpace=wrap;html=1;" vertex="1" parent="1">
          <mxGeometry x="350" y="209" width="160" height="40" as="geometry" />
        </mxCell>
        <mxCell id="UGi_67-xu8HfX04rQqDn-18" value="Prompt" style="rhombus;whiteSpace=wrap;html=1;" vertex="1" parent="1">
          <mxGeometry x="210" y="209" width="80" height="80" as="geometry" />
        </mxCell>
        <mxCell id="UGi_67-xu8HfX04rQqDn-19" value="" style="endArrow=classic;html=1;rounded=0;exitX=1;exitY=0.5;exitDx=0;exitDy=0;entryX=0;entryY=0.5;entryDx=0;entryDy=0;" edge="1" parent="1" source="UGi_67-xu8HfX04rQqDn-2" target="UGi_67-xu8HfX04rQqDn-18">
          <mxGeometry width="50" height="50" relative="1" as="geometry">
            <mxPoint x="150" y="210" as="sourcePoint" />
            <mxPoint x="200" y="160" as="targetPoint" />
          </mxGeometry>
        </mxCell>
        <mxCell id="UGi_67-xu8HfX04rQqDn-20" value="" style="endArrow=classic;html=1;rounded=0;exitX=1;exitY=0.5;exitDx=0;exitDy=0;entryX=0;entryY=0.5;entryDx=0;entryDy=0;" edge="1" parent="1" source="UGi_67-xu8HfX04rQqDn-3" target="UGi_67-xu8HfX04rQqDn-18">
          <mxGeometry width="50" height="50" relative="1" as="geometry">
            <mxPoint x="150" y="380" as="sourcePoint" />
            <mxPoint x="200" y="330" as="targetPoint" />
          </mxGeometry>
        </mxCell>
        <mxCell id="UGi_67-xu8HfX04rQqDn-21" value="" style="endArrow=classic;html=1;rounded=0;exitX=1;exitY=0.5;exitDx=0;exitDy=0;entryX=0;entryY=0;entryDx=0;entryDy=0;" edge="1" parent="1" source="UGi_67-xu8HfX04rQqDn-18" target="UGi_67-xu8HfX04rQqDn-15">
          <mxGeometry width="50" height="50" relative="1" as="geometry">
            <mxPoint x="190" y="380" as="sourcePoint" />
            <mxPoint x="240" y="330" as="targetPoint" />
          </mxGeometry>
        </mxCell>
        <mxCell id="UGi_67-xu8HfX04rQqDn-24" value="Build Tree With Gatways" style="rounded=0;whiteSpace=wrap;html=1;" vertex="1" parent="1">
          <mxGeometry x="610" y="250" width="160" height="60" as="geometry" />
        </mxCell>
        <mxCell id="UGi_67-xu8HfX04rQqDn-25" value="Stage Two" style="rounded=0;whiteSpace=wrap;html=1;" vertex="1" parent="1">
          <mxGeometry x="610" y="210" width="160" height="40" as="geometry" />
        </mxCell>
        <mxCell id="UGi_67-xu8HfX04rQqDn-26" value="" style="endArrow=classic;html=1;rounded=0;exitX=1;exitY=0;exitDx=0;exitDy=0;entryX=0;entryY=0;entryDx=0;entryDy=0;" edge="1" parent="1" source="UGi_67-xu8HfX04rQqDn-15" target="UGi_67-xu8HfX04rQqDn-24">
          <mxGeometry width="50" height="50" relative="1" as="geometry">
            <mxPoint x="580" y="340" as="sourcePoint" />
            <mxPoint x="640" y="340" as="targetPoint" />
          </mxGeometry>
        </mxCell>
      </root>
    </mxGraphModel>
  </diagram>
</mxfile>
